<mxfile host="app.diagrams.net" modified="2023-11-09T14:32:34.770Z" agent="Mozilla/5.0 (Macintosh; Intel Mac OS X 10_15_7) AppleWebKit/537.36 (KHTML, like Gecko) Chrome/119.0.0.0 Safari/537.36" version="22.1.0" etag="QdPzvSsgcCGF635l8-Hu" type="github">
  <diagram name="Page-1" id="W82yA3SU3nZ2Pxa15lx-">
    <mxGraphModel>
      <root>
        <mxCell id="0" />
        <mxCell id="1" parent="0" />
      </root>
    </mxGraphModel>
  </diagram>
</mxfile>
